<?xml version="1.0" standalone="no"?>
<!DOCTYPE svg PUBLIC "-//W3C//DTD SVG 20010904//EN"
 "http://www.w3.org/TR/2001/REC-SVG-20010904/DTD/svg10.dtd">
<svg version="1.0" xmlns="http://www.w3.org/2000/svg"
 width="96.000000pt" height="96.000000pt" viewBox="0 0 96.000000 96.000000"
 preserveAspectRatio="xMidYMid meet">

<g transform="translate(0.000000,96.000000) scale(0.100000,-0.100000)"
fill="#000000" stroke="none">
<path d="M34 846 l-34 -34 0 -192 0 -192 34 -34 c21 -21 44 -34 60 -34 25 0
26 -2 26 -60 0 -50 3 -61 21 -70 24 -13 32 -9 133 74 l69 56 134 0 135 0 34
34 c33 33 34 36 34 120 l0 86 103 0 c142 0 137 8 137 -201 0 -90 -4 -170 -9
-178 -5 -8 -26 -17 -47 -20 -39 -6 -39 -6 -42 -59 -2 -28 -6 -52 -9 -52 -3 0
-36 25 -74 55 l-68 55 -118 0 c-65 0 -125 4 -132 9 -8 5 -17 31 -20 58 -4 34
-11 48 -21 48 -11 0 -16 -13 -18 -48 -3 -41 1 -51 27 -77 29 -30 30 -30 149
-30 l120 0 74 -60 c40 -33 81 -60 90 -60 23 0 38 30 38 79 0 35 3 41 21 41 11
0 34 13 50 29 l29 29 0 182 0 182 -29 29 c-29 29 -31 29 -140 29 l-111 0 0 86
c0 84 -1 87 -34 120 l-34 34 -272 0 -272 0 -34 -34z m586 -26 c19 -19 20 -33
20 -200 0 -233 10 -220 -176 -220 l-136 0 -79 -65 c-43 -36 -80 -65 -83 -65
-3 0 -6 28 -8 63 l-3 62 -44 6 c-68 9 -71 17 -71 221 0 165 1 179 20 198 19
19 33 20 280 20 247 0 261 -1 280 -20z"/>
</g>
</svg>
