<?xml version="1.0" encoding="UTF-8"?>
<!DOCTYPE svg PUBLIC "-//W3C//DTD SVG 1.1//EN" "http://www.w3.org/Graphics/SVG/1.1/DTD/svg11.dtd">
<svg xmlns="http://www.w3.org/2000/svg" version="1.1" width="48px" height="48px" style="shape-rendering:geometricPrecision; text-rendering:geometricPrecision; image-rendering:optimizeQuality; fill-rule:evenodd; clip-rule:evenodd" xmlns:xlink="http://www.w3.org/1999/xlink">
<g><path style="opacity:0.75" fill="#000000" d="M 3.5,3.5 C 16.8108,8.65286 29.8108,14.6529 42.5,21.5C 43.8333,22.8333 43.8333,24.1667 42.5,25.5C 29.8108,32.3471 16.8108,38.3471 3.5,43.5C 4.67478,36.4721 7.00811,29.8054 10.5,23.5C 7.00811,17.1946 4.67478,10.5279 3.5,3.5 Z M 9.5,9.5 C 18.6303,13.8986 27.6303,18.5653 36.5,23.5C 27.7458,28.2941 18.9124,32.9607 10,37.5C 10.5303,33.7376 11.697,30.071 13.5,26.5C 18.456,25.5059 23.456,25.1725 28.5,25.5C 28.5,24.1667 28.5,22.8333 28.5,21.5C 23.456,21.8275 18.456,21.4941 13.5,20.5C 11.8746,16.9205 10.5413,13.2538 9.5,9.5 Z"/></g>
</svg>
